HIERARCHY
ROOT Hips
{
	OFFSET -3.958830 18.904000 13.208200
	CHANNELS 6 Xposition Yposition Zposition Zrotation Yrotation Xrotation 
	JOINT LHipJoint
	{
		OFFSET 0.000000 0.000000 0.000000
		CHANNELS 3 Zrotation Yrotation Xrotation
		JOINT LeftUpLeg
		{
			OFFSET 1.800000 -1.400000 0.085000
			CHANNELS 3 Zrotation Yrotation Xrotation
			JOINT LeftLeg
			{
				OFFSET 2.215000 -6.000000 0.000000
				CHANNELS 3 Zrotation Yrotation Xrotation
				JOINT LeftFoot
				{
					OFFSET 2.500000 -6.900000 0.000000
					CHANNELS 3 Zrotation Yrotation Xrotation
					JOINT LeftToeBase
					{
						OFFSET 0.200000 -0.500000 1.950000
						CHANNELS 3 Zrotation Yrotation Xrotation
						End Site
						{
							OFFSET 0.000000 0.000000 0.000000
						}
					}
				}
			}
		}
	}
	JOINT RHipJoint
	{
		OFFSET 0.000000 0.000000 0.000000
		CHANNELS 3 Zrotation Yrotation Xrotation
		JOINT RightUpLeg
		{
			OFFSET -1.800000 -1.400000 0.085000
			CHANNELS 3 Zrotation Yrotation Xrotation
			JOINT RightLeg
			{
				OFFSET -2.215000 -6.000000 0.000000
				CHANNELS 3 Zrotation Yrotation Xrotation
				JOINT RightFoot
				{
					OFFSET -2.500000 -6.900000 0.000000
					CHANNELS 3 Zrotation Yrotation Xrotation
					JOINT RightToeBase
					{
						OFFSET -0.200000 -0.500000 1.950000
						CHANNELS 3 Zrotation Yrotation Xrotation
						End Site
						{
							OFFSET 0.000000 0.000000 0.000000
						}
					}
				}
			}
		}
	}
	JOINT LowerBack
	{
		OFFSET 0.000000 0.000000 0.000000
		CHANNELS 3 Zrotation Yrotation Xrotation
		JOINT Spine
		{
			OFFSET -0.087000 1.940000 -0.288900
			CHANNELS 3 Zrotation Yrotation Xrotation
			JOINT Spine1
			{
				OFFSET 0.000000 1.950000 0.060000
				CHANNELS 3 Zrotation Yrotation Xrotation
				JOINT Neck
				{
					OFFSET 0.000000 0.000000 0.000000
					CHANNELS 3 Zrotation Yrotation Xrotation
					JOINT Neck1
					{
						OFFSET 0.000000 1.600000 0.340000
						CHANNELS 3 Zrotation Yrotation Xrotation
						JOINT Head
						{
							OFFSET 0.000000 1.667000 -0.240000
							CHANNELS 3 Zrotation Yrotation Xrotation
							End Site
							{
								OFFSET 0.000000 0.000000 0.000000
							}
						}
					}
				}
				JOINT LeftShoulder
				{
					OFFSET 0.000000 0.000000 0.000000
					CHANNELS 3 Zrotation Yrotation Xrotation
					JOINT LeftArm
					{
						OFFSET 2.700000 1.550000 -0.730000
						CHANNELS 3 Zrotation Yrotation Xrotation
						JOINT LeftForeArm
						{
							OFFSET 5.450000 0.000000 0.000000
							CHANNELS 3 Zrotation Yrotation Xrotation
							JOINT LeftHand
							{
								OFFSET 3.450000 0.000000 0.000000
								CHANNELS 3 Zrotation Yrotation Xrotation
								JOINT LeftHandIndex1
								{
									OFFSET 0.750000 0.000000 0.000000
									CHANNELS 3 Zrotation Yrotation Xrotation
									End Site
									{
										OFFSET 0.000000 0.000000 0.000000
									}
								}
							}
						}
					}
				}
				JOINT RightShoulder
				{
					OFFSET 0.000000 0.000000 0.000000
					CHANNELS 3 Zrotation Yrotation Xrotation
					JOINT RightArm
					{
						OFFSET -2.700000 1.550000 -0.730000
						CHANNELS 3 Zrotation Yrotation Xrotation
						JOINT RightForeArm
						{
							OFFSET -5.450000 0.000000 0.000000
							CHANNELS 3 Zrotation Yrotation Xrotation
							JOINT RightHand
							{
								OFFSET -3.450000 0.000000 0.000000
								CHANNELS 3 Zrotation Yrotation Xrotation
								JOINT RightHandIndex1
								{
									OFFSET -0.750000 0.000000 0.000000
									CHANNELS 3 Zrotation Yrotation Xrotation
									End Site
									{
										OFFSET 0.000000 0.000000 0.000000
									}
								}
							}
						}
					}
				}
			}
		}
	}
}
MOTION
Frames: 6
Frame Time: 0.016667
-0.266630 17.466260 -1.912380 -0.108134 -53.147914 -2.880921 -15.133339 14.313401 2.759676 1.840605 -0.641953 -5.803443 -2.392021 7.328755 28.264337 -0.256583 5.775449 2.612034 0.637470 0.337840 0.614170 18.218761 -10.607829 2.769218 -11.331514 1.081650 -32.418745 -2.029280 -3.674068 19.849014 -0.100605 -2.430871 3.523772 0.206260 0.136040 0.218170 -3.698647 -3.536234 -6.750069 9.113681 -7.022534 11.812895 -10.153844 -5.534404 6.369249 1.826635 -9.297985 -9.348645 -21.603113 23.193712 29.707638 -7.284480 18.778350 -13.119920 -19.583795 -2.102161 1.531749 -41.591926 -0.340333 -6.002195 -43.171875 -26.135652 5.886420 -3.561759 3.182417 0.675260 0.087240 0.147470 0.256810 15.914702 5.517281 5.655919 53.997464 -4.137840 -10.682419 71.247886 37.853642 18.347730 2.107739 -1.878575 -0.230160 0.223140 -0.226220 -0.272650 
-0.302380 17.436890 -1.934340 0.413092 -51.394762 -3.359345 -15.148436 14.318985 2.873193 1.136568 -1.353850 -7.741195 -2.584334 7.807428 31.474418 -0.180332 6.167793 2.471880 0.608960 0.293100 0.599640 18.191837 -10.612840 2.647717 -12.878972 0.520648 -30.762996 -1.038602 -3.899026 18.316661 -0.083824 -2.433509 3.544302 0.179090 0.142840 0.208820 -3.459832 -3.681056 -6.835578 7.701780 -6.537445 12.480716 -8.902492 -5.248016 6.701431 1.944596 -8.968438 -9.303768 -20.471526 22.088238 29.525733 -7.832180 18.323340 -12.865350 -18.778966 -0.189400 1.291004 -41.694658 1.897804 -7.243668 -46.235403 -29.469908 7.698780 -3.551604 3.200548 0.682400 0.089970 0.133870 0.258540 15.019399 3.762334 5.891310 54.583584 -6.863230 -11.485458 79.969218 41.985084 24.500491 2.084216 -1.945841 -0.246730 0.221540 -0.222130 -0.278190 
-0.336580 17.413140 -1.955430 0.224735 -49.208983 -3.226636 -15.153502 14.286119 3.016668 0.979310 -2.195068 -9.872276 -3.329948 8.509408 34.300019 -0.067591 6.599682 2.311074 0.539000 0.207000 0.558840 18.171747 -10.613578 2.557101 -13.734865 0.254054 -29.199266 -0.115792 -4.144897 17.549598 -0.058533 -2.495134 3.538315 0.117350 0.147790 0.212220 -3.286374 -3.763722 -6.966009 7.054136 -6.056095 13.562064 -7.830442 -4.955600 6.391585 2.331825 -8.472273 -9.187656 -18.870541 20.432300 29.309216 -8.916690 17.966070 -11.875900 -18.223471 1.892998 0.926896 -41.543331 4.093572 -8.231893 -49.977931 -33.141794 10.240008 -3.555805 3.253652 0.663540 0.103000 0.108970 0.238140 13.808810 1.649898 6.107315 56.012878 -9.640795 -12.164996 88.496979 45.054414 31.008689 2.082646 -2.009125 -0.247850 0.182830 -0.196350 -0.278220 
-0.362810 17.408550 -1.976450 -0.170452 -46.492966 -3.277223 -15.162576 14.277963 3.192200 0.663209 -3.021677 -11.661086 -3.764124 8.989673 36.614146 -0.007976 6.961992 2.156070 0.508720 0.130080 0.566740 18.142964 -10.641307 2.436119 -14.162285 0.053576 -27.349960 0.161333 -4.298557 17.369759 -0.057605 -2.561727 3.514195 0.061790 0.109560 0.230330 -3.074399 -3.876440 -7.123958 6.240249 -5.452818 15.235028 -6.341648 -4.555404 5.840189 2.714035 -7.753788 -8.933678 -17.017190 18.675684 29.842390 -9.952490 17.437410 -12.078210 -17.864192 3.953227 0.454069 -41.990938 5.720043 -8.958755 -53.532006 -36.990979 13.189803 -3.539918 3.314076 0.694530 0.086310 0.103460 0.199500 12.799384 -0.574206 6.155624 57.401442 -11.876595 -12.763830 96.343331 48.010035 38.209362 2.076108 -2.043362 -0.244510 0.126350 -0.169560 -0.312500 
-0.394650 17.422910 -1.990620 -0.645849 -43.111565 -3.340900 -15.180713 14.270773 3.371988 0.682443 -3.719659 -13.082921 -4.875385 9.654668 38.009922 0.105840 7.253739 2.051955 0.469860 0.087350 0.533310 18.104642 -10.681428 2.292135 -14.411970 -0.173825 -25.164640 0.214370 -4.397029 17.236378 -0.061536 -2.636499 3.516168 0.010780 0.100790 0.238760 -2.860801 -3.983517 -7.280230 5.426586 -4.850223 16.834659 -4.697859 -4.128108 4.998859 3.067055 -6.944287 -8.676981 -15.144343 16.684589 30.608461 -10.464210 16.611330 -11.624030 -17.805561 5.888358 0.065852 -42.517685 7.357439 -9.477893 -57.314515 -40.988526 16.805303 -3.518090 3.370267 0.684680 0.081170 0.105870 0.198410 12.164295 -2.684696 6.228681 58.487182 -14.086024 -13.310265 104.663703 50.445470 46.314544 2.093511 -2.055823 -0.223530 0.093330 -0.164530 -0.298930 
-0.420150 17.431340 -1.995200 -1.190145 -39.650140 -2.541907 -15.221149 14.178871 3.482405 0.625971 -4.215890 -14.659783 -5.951742 10.074120 38.074725 0.134752 7.360421 2.044413 0.388010 0.003700 0.477060 18.070294 -10.680649 2.213292 -14.596243 -0.203022 -23.779434 0.680771 -4.535740 16.932923 -0.025194 -2.729486 3.527914 -0.027900 0.164140 0.221500 -2.728395 -3.930655 -7.344648 5.056496 -3.936045 16.599155 -2.846409 -3.342541 4.998380 3.159855 -5.850631 -8.295959 -12.666059 14.324989 30.806645 -10.870820 15.737950 -9.666500 -17.077685 7.733534 -0.224035 -43.351943 8.064778 -9.139130 -62.840653 -44.381292 21.479887 -3.567749 3.385431 0.645160 0.134340 0.054430 0.198320 11.304404 -4.880081 6.288811 59.563710 -16.114897 -13.880590 114.485000 52.750433 56.869787 2.075005 -2.032026 -0.259150 0.114100 -0.136850 -0.289160 
